<svg width="63" height="58" viewBox="0 0 63 58" fill="none" xmlns="http://www.w3.org/2000/svg">
<mask id="path-1-outside-1_9_2" maskUnits="userSpaceOnUse" x="-1" y="-1" width="65" height="60" fill="black">
<rect fill="white" x="-1" y="-1" width="65" height="60"/>
<path d="M0.488636 29.1818V25.2045C3.06439 25.2045 4.85985 24.6818 5.875 23.6364C6.9053 22.5758 7.42045 20.8561 7.42045 18.4773V12.6818C7.42045 10.1212 7.73864 8.02273 8.375 6.38636C9.02652 4.75 9.97348 3.47727 11.2159 2.56818C12.4583 1.65909 13.9735 1.0303 15.7614 0.681816C17.5492 0.318181 19.5795 0.136364 21.8523 0.136364V6.45454C20.0644 6.45454 18.6932 6.70454 17.7386 7.20454C16.7841 7.68939 16.125 8.43939 15.7614 9.45454C15.4129 10.4697 15.2386 11.7652 15.2386 13.3409V20.7955C15.2386 21.9621 15.0417 23.053 14.6477 24.0682C14.2538 25.0833 13.5341 25.9773 12.4886 26.75C11.4432 27.5076 9.95076 28.1061 8.01136 28.5455C6.08712 28.9697 3.57955 29.1818 0.488636 29.1818ZM21.8523 57.8864C19.5795 57.8864 17.5492 57.7045 15.7614 57.3409C13.9735 56.9924 12.4583 56.3636 11.2159 55.4545C9.97348 54.5455 9.02652 53.2727 8.375 51.6364C7.73864 50 7.42045 47.9015 7.42045 45.3409V39.5682C7.42045 37.1894 6.9053 35.4773 5.875 34.4318C4.85985 33.3712 3.06439 32.8409 0.488636 32.8409V28.8636C3.57955 28.8636 6.08712 29.0833 8.01136 29.5227C9.95076 29.947 11.4432 30.5455 12.4886 31.3182C13.5341 32.0758 14.2538 32.9621 14.6477 33.9773C15.0417 34.9924 15.2386 36.0758 15.2386 37.2273V44.6818C15.2386 46.2576 15.4129 47.553 15.7614 48.5682C16.125 49.5833 16.7841 50.3409 17.7386 50.8409C18.6932 51.3409 20.0644 51.5909 21.8523 51.5909V57.8864ZM0.488636 32.8409V25.2045H7.69318V32.8409H0.488636ZM62.5057 28.8636V32.8409C59.9299 32.8409 58.1269 33.3712 57.0966 34.4318C56.0814 35.4773 55.5739 37.1894 55.5739 39.5682V45.3409C55.5739 47.9015 55.2481 50 54.5966 51.6364C53.9602 53.2727 53.0208 54.5455 51.7784 55.4545C50.536 56.3636 49.0208 56.9924 47.233 57.3409C45.4451 57.7045 43.4148 57.8864 41.142 57.8864V51.5909C42.9299 51.5909 44.3011 51.3409 45.2557 50.8409C46.2102 50.3409 46.8617 49.5833 47.2102 48.5682C47.5739 47.553 47.7557 46.2576 47.7557 44.6818V37.2273C47.7557 36.0758 47.9527 34.9924 48.3466 33.9773C48.7405 32.9621 49.4602 32.0758 50.5057 31.3182C51.5511 30.5455 53.036 29.947 54.9602 29.5227C56.8996 29.0833 59.4148 28.8636 62.5057 28.8636ZM41.142 0.136364C43.4148 0.136364 45.4451 0.318181 47.233 0.681816C49.0208 1.0303 50.536 1.65909 51.7784 2.56818C53.0208 3.47727 53.9602 4.75 54.5966 6.38636C55.2481 8.02273 55.5739 10.1212 55.5739 12.6818V18.4773C55.5739 20.8561 56.0814 22.5758 57.0966 23.6364C58.1269 24.6818 59.9299 25.2045 62.5057 25.2045V29.1818C59.4148 29.1818 56.8996 28.9697 54.9602 28.5455C53.036 28.1061 51.5511 27.5076 50.5057 26.75C49.4602 25.9773 48.7405 25.0833 48.3466 24.0682C47.9527 23.053 47.7557 21.9621 47.7557 20.7955V13.3409C47.7557 11.7652 47.5739 10.4697 47.2102 9.45454C46.8617 8.43939 46.2102 7.68939 45.2557 7.20454C44.3011 6.70454 42.9299 6.45454 41.142 6.45454V0.136364ZM62.5057 25.2045V32.8409H55.3011V25.2045H62.5057Z"/>
</mask>
<path d="M0.488636 29.1818V25.2045C3.06439 25.2045 4.85985 24.6818 5.875 23.6364C6.9053 22.5758 7.42045 20.8561 7.42045 18.4773V12.6818C7.42045 10.1212 7.73864 8.02273 8.375 6.38636C9.02652 4.75 9.97348 3.47727 11.2159 2.56818C12.4583 1.65909 13.9735 1.0303 15.7614 0.681816C17.5492 0.318181 19.5795 0.136364 21.8523 0.136364V6.45454C20.0644 6.45454 18.6932 6.70454 17.7386 7.20454C16.7841 7.68939 16.125 8.43939 15.7614 9.45454C15.4129 10.4697 15.2386 11.7652 15.2386 13.3409V20.7955C15.2386 21.9621 15.0417 23.053 14.6477 24.0682C14.2538 25.0833 13.5341 25.9773 12.4886 26.75C11.4432 27.5076 9.95076 28.1061 8.01136 28.5455C6.08712 28.9697 3.57955 29.1818 0.488636 29.1818ZM21.8523 57.8864C19.5795 57.8864 17.5492 57.7045 15.7614 57.3409C13.9735 56.9924 12.4583 56.3636 11.2159 55.4545C9.97348 54.5455 9.02652 53.2727 8.375 51.6364C7.73864 50 7.42045 47.9015 7.42045 45.3409V39.5682C7.42045 37.1894 6.9053 35.4773 5.875 34.4318C4.85985 33.3712 3.06439 32.8409 0.488636 32.8409V28.8636C3.57955 28.8636 6.08712 29.0833 8.01136 29.5227C9.95076 29.947 11.4432 30.5455 12.4886 31.3182C13.5341 32.0758 14.2538 32.9621 14.6477 33.9773C15.0417 34.9924 15.2386 36.0758 15.2386 37.2273V44.6818C15.2386 46.2576 15.4129 47.553 15.7614 48.5682C16.125 49.5833 16.7841 50.3409 17.7386 50.8409C18.6932 51.3409 20.0644 51.5909 21.8523 51.5909V57.8864ZM0.488636 32.8409V25.2045H7.69318V32.8409H0.488636ZM62.5057 28.8636V32.8409C59.9299 32.8409 58.1269 33.3712 57.0966 34.4318C56.0814 35.4773 55.5739 37.1894 55.5739 39.5682V45.3409C55.5739 47.9015 55.2481 50 54.5966 51.6364C53.9602 53.2727 53.0208 54.5455 51.7784 55.4545C50.536 56.3636 49.0208 56.9924 47.233 57.3409C45.4451 57.7045 43.4148 57.8864 41.142 57.8864V51.5909C42.9299 51.5909 44.3011 51.3409 45.2557 50.8409C46.2102 50.3409 46.8617 49.5833 47.2102 48.5682C47.5739 47.553 47.7557 46.2576 47.7557 44.6818V37.2273C47.7557 36.0758 47.9527 34.9924 48.3466 33.9773C48.7405 32.9621 49.4602 32.0758 50.5057 31.3182C51.5511 30.5455 53.036 29.947 54.9602 29.5227C56.8996 29.0833 59.4148 28.8636 62.5057 28.8636ZM41.142 0.136364C43.4148 0.136364 45.4451 0.318181 47.233 0.681816C49.0208 1.0303 50.536 1.65909 51.7784 2.56818C53.0208 3.47727 53.9602 4.75 54.5966 6.38636C55.2481 8.02273 55.5739 10.1212 55.5739 12.6818V18.4773C55.5739 20.8561 56.0814 22.5758 57.0966 23.6364C58.1269 24.6818 59.9299 25.2045 62.5057 25.2045V29.1818C59.4148 29.1818 56.8996 28.9697 54.9602 28.5455C53.036 28.1061 51.5511 27.5076 50.5057 26.75C49.4602 25.9773 48.7405 25.0833 48.3466 24.0682C47.9527 23.053 47.7557 21.9621 47.7557 20.7955V13.3409C47.7557 11.7652 47.5739 10.4697 47.2102 9.45454C46.8617 8.43939 46.2102 7.68939 45.2557 7.20454C44.3011 6.70454 42.9299 6.45454 41.142 6.45454V0.136364ZM62.5057 25.2045V32.8409H55.3011V25.2045H62.5057Z" fill="#CBCBCB"/>
<path d="M0.488636 29.1818H-0.511364V30.1818H0.488636V29.1818ZM0.488636 25.2045V24.2045H-0.511364V25.2045H0.488636ZM5.875 23.6364L5.15772 22.9396L5.15757 22.9397L5.875 23.6364ZM8.375 6.38636L7.4459 6.01645L7.443 6.02392L8.375 6.38636ZM11.2159 2.56818L10.6254 1.76115L10.6254 1.76115L11.2159 2.56818ZM15.7614 0.681816L15.9527 1.66338L15.9607 1.66175L15.7614 0.681816ZM21.8523 0.136364H22.8523V-0.863636H21.8523V0.136364ZM21.8523 6.45454V7.45454H22.8523V6.45454H21.8523ZM17.7386 7.20454L18.1915 8.09619L18.2026 8.09038L17.7386 7.20454ZM15.7614 9.45454L14.8199 9.11729L14.8155 9.12986L15.7614 9.45454ZM14.6477 24.0682L15.58 24.43L15.58 24.43L14.6477 24.0682ZM12.4886 26.75L13.0754 27.5598L13.083 27.5542L12.4886 26.75ZM8.01136 28.5455L8.22667 29.522L8.23233 29.5207L8.01136 28.5455ZM21.8523 57.8864V58.8864H22.8523V57.8864H21.8523ZM15.7614 57.3409L15.9607 56.3609L15.9527 56.3594L15.7614 57.3409ZM11.2159 55.4545L10.6254 56.2616L10.6254 56.2616L11.2159 55.4545ZM8.375 51.6364L7.44297 51.9988L7.44593 52.0063L8.375 51.6364ZM5.875 34.4318L5.15258 35.1233L5.15763 35.1285L5.16275 35.1337L5.875 34.4318ZM0.488636 32.8409H-0.511364V33.8409H0.488636V32.8409ZM0.488636 28.8636V27.8636H-0.511364V28.8636H0.488636ZM8.01136 29.5227L7.78874 30.4977L7.79767 30.4996L8.01136 29.5227ZM12.4886 31.3182L11.8942 32.1224L11.9019 32.1279L12.4886 31.3182ZM14.6477 33.9773L15.58 33.6155L15.58 33.6155L14.6477 33.9773ZM15.7614 48.5682L14.8155 48.8929L14.8199 48.9054L15.7614 48.5682ZM17.7386 50.8409L17.2746 51.7267L17.2746 51.7267L17.7386 50.8409ZM21.8523 51.5909H22.8523V50.5909H21.8523V51.5909ZM0.488636 32.8409H-0.511364V33.8409H0.488636V32.8409ZM0.488636 25.2045V24.2045H-0.511364V25.2045H0.488636ZM7.69318 25.2045H8.69318V24.2045H7.69318V25.2045ZM7.69318 32.8409V33.8409H8.69318V32.8409H7.69318ZM1.48864 29.1818V25.2045H-0.511364V29.1818H1.48864ZM0.488636 26.2045C3.14279 26.2045 5.28773 25.6766 6.59243 24.333L5.15757 22.9397C4.43196 23.687 2.986 24.2045 0.488636 24.2045V26.2045ZM6.59228 24.3331C7.88739 22.9999 8.42045 20.9648 8.42045 18.4773H6.42045C6.42045 20.7473 5.92322 22.1516 5.15772 22.9396L6.59228 24.3331ZM8.42045 18.4773V12.6818H6.42045V18.4773H8.42045ZM8.42045 12.6818C8.42045 10.1933 8.73117 8.22954 9.307 6.74881L7.443 6.02392C6.74611 7.81592 6.42045 10.0491 6.42045 12.6818H8.42045ZM9.30407 6.75627C9.89631 5.26879 10.7366 4.15801 11.8064 3.37521L10.6254 1.76115C9.21037 2.79654 8.15672 4.23121 7.44593 6.01646L9.30407 6.75627ZM11.8064 3.37521C12.9104 2.56739 14.2829 1.98881 15.9527 1.66334L15.57 -0.299713C13.6641 0.0717944 12.0062 0.75079 10.6254 1.76115L11.8064 3.37521ZM15.9607 1.66175C17.6693 1.31424 19.6309 1.13636 21.8523 1.13636V-0.863636C19.5282 -0.863636 17.4292 -0.677878 15.5621 -0.298121L15.9607 1.66175ZM20.8523 0.136364V6.45454H22.8523V0.136364H20.8523ZM21.8523 5.45454C19.9967 5.45454 18.4372 5.70973 17.2746 6.31871L18.2026 8.09038C18.9491 7.69935 20.1321 7.45454 21.8523 7.45454V5.45454ZM17.2858 6.31297C16.1018 6.91437 15.269 7.86371 14.8199 9.11732L16.7028 9.79177C16.981 9.01507 17.4664 8.46441 18.1915 8.09612L17.2858 6.31297ZM14.8155 9.12986C14.4186 10.2861 14.2386 11.7015 14.2386 13.3409H16.2386C16.2386 11.8288 16.4071 10.6533 16.7072 9.77923L14.8155 9.12986ZM14.2386 13.3409V20.7955H16.2386V13.3409H14.2386ZM14.2386 20.7955C14.2386 21.8473 14.0615 22.8146 13.7155 23.7064L15.58 24.43C16.0218 23.2914 16.2386 22.077 16.2386 20.7955H14.2386ZM13.7155 23.7064C13.4023 24.5134 12.8173 25.2636 11.8942 25.9458L13.083 27.5542C14.2509 26.691 15.1053 25.6533 15.58 24.43L13.7155 23.7064ZM11.9019 25.9403C11.0088 26.5874 9.66186 27.1462 7.7904 27.5702L8.23233 29.5207C10.2397 29.066 11.8776 28.4277 13.0754 27.5597L11.9019 25.9403ZM7.79606 27.5689C5.97061 27.9714 3.54305 28.1818 0.488636 28.1818V30.1818C3.61604 30.1818 6.20364 29.968 8.22667 29.522L7.79606 27.5689ZM21.8523 56.8864C19.6309 56.8864 17.6693 56.7085 15.9607 56.361L15.5621 58.3208C17.4292 58.7006 19.5282 58.8864 21.8523 58.8864V56.8864ZM15.9527 56.3594C14.2829 56.0339 12.9104 55.4553 11.8064 54.6475L10.6254 56.2616C12.0062 57.2719 13.6641 57.9509 15.57 58.3224L15.9527 56.3594ZM11.8064 54.6475C10.7366 53.8647 9.89631 52.7539 9.30407 51.2665L7.44593 52.0063C8.15672 53.7915 9.21037 55.2262 10.6254 56.2616L11.8064 54.6475ZM9.307 51.2739C8.73117 49.7932 8.42045 47.8294 8.42045 45.3409H6.42045C6.42045 47.9737 6.74611 50.2068 7.443 51.9988L9.307 51.2739ZM8.42045 45.3409V39.5682H6.42045V45.3409H8.42045ZM8.42045 39.5682C8.42045 37.0824 7.88813 35.0499 6.58725 33.7299L5.16275 35.1337C5.92247 35.9046 6.42045 37.2964 6.42045 39.5682H8.42045ZM6.59742 33.7404C5.29305 32.3776 3.14576 31.8409 0.488636 31.8409V33.8409C2.98303 33.8409 4.42665 34.3648 5.15258 35.1233L6.59742 33.7404ZM1.48864 32.8409V28.8636H-0.511364V32.8409H1.48864ZM0.488636 29.8636C3.54166 29.8636 5.96647 30.0815 7.78875 30.4976L8.23398 28.5478C6.20778 28.0851 3.61743 27.8636 0.488636 27.8636V29.8636ZM7.79767 30.4996C9.66492 30.9081 11.0058 31.4657 11.8942 32.1224L13.083 30.514C11.8805 29.6252 10.2366 28.9859 8.22506 28.5458L7.79767 30.4996ZM11.9019 32.1279C12.8208 32.7938 13.4032 33.5344 13.7155 34.339L15.58 33.6155C15.1044 32.3898 14.2474 31.3577 13.0754 30.5084L11.9019 32.1279ZM13.7155 34.339C14.0621 35.2323 14.2386 36.1923 14.2386 37.2273H16.2386C16.2386 35.9592 16.0212 34.7525 15.58 33.6155L13.7155 34.339ZM14.2386 37.2273V44.6818H16.2386V37.2273H14.2386ZM14.2386 44.6818C14.2386 46.3212 14.4186 47.7366 14.8155 48.8929L16.7072 48.2435C16.4071 47.3694 16.2386 46.1939 16.2386 44.6818H14.2386ZM14.8199 48.9054C15.2682 50.1567 16.0976 51.1102 17.2746 51.7267L18.2026 49.9551C17.4706 49.5716 16.9818 49.01 16.7028 48.231L14.8199 48.9054ZM17.2746 51.7267C18.4372 52.3357 19.9967 52.5909 21.8523 52.5909V50.5909C20.1321 50.5909 18.9491 50.3461 18.2026 49.9551L17.2746 51.7267ZM20.8523 51.5909V57.8864H22.8523V51.5909H20.8523ZM1.48864 32.8409V25.2045H-0.511364V32.8409H1.48864ZM0.488636 26.2045H7.69318V24.2045H0.488636V26.2045ZM6.69318 25.2045V32.8409H8.69318V25.2045H6.69318ZM7.69318 31.8409H0.488636V33.8409H7.69318V31.8409ZM62.5057 28.8636H63.5057V27.8636H62.5057V28.8636ZM62.5057 32.8409V33.8409H63.5057V32.8409H62.5057ZM57.0966 34.4318L56.3793 33.735L56.3792 33.7352L57.0966 34.4318ZM54.5966 51.6364L53.6675 51.2664L53.6646 51.2739L54.5966 51.6364ZM51.7784 55.4545L51.1879 54.6475L51.1879 54.6475L51.7784 55.4545ZM47.233 57.3409L47.0416 56.3593L47.0336 56.361L47.233 57.3409ZM41.142 57.8864H40.142V58.8864H41.142V57.8864ZM41.142 51.5909V50.5909H40.142V51.5909H41.142ZM47.2102 48.5682L46.2687 48.2309L46.2644 48.2435L47.2102 48.5682ZM48.3466 33.9773L47.4143 33.6155L47.4143 33.6155L48.3466 33.9773ZM50.5057 31.3182L51.0925 32.128L51.1001 32.1224L50.5057 31.3182ZM54.9602 29.5227L55.1755 30.4993L55.1812 30.498L54.9602 29.5227ZM41.142 0.136364V-0.863636H40.142V0.136364H41.142ZM47.233 0.681816L47.0336 1.66179L47.0416 1.66334L47.233 0.681816ZM51.7784 2.56818L51.1879 3.37521L51.1879 3.37521L51.7784 2.56818ZM54.5966 6.38636L53.6646 6.74882L53.6675 6.75627L54.5966 6.38636ZM57.0966 23.6364L56.3742 24.3278L56.3792 24.3331L56.3843 24.3383L57.0966 23.6364ZM62.5057 25.2045H63.5057V24.2045H62.5057V25.2045ZM62.5057 29.1818V30.1818H63.5057V29.1818H62.5057ZM54.9602 28.5455L54.7376 29.5204L54.7465 29.5224L54.9602 28.5455ZM50.5057 26.75L49.9113 27.5542L49.9189 27.5597L50.5057 26.75ZM48.3466 24.0682L47.4143 24.43L47.4143 24.43L48.3466 24.0682ZM47.2102 9.45454L46.2643 9.77926L46.2688 9.79177L47.2102 9.45454ZM45.2557 7.20454L44.7916 8.09045L44.8028 8.09612L45.2557 7.20454ZM41.142 6.45454H40.142V7.45454H41.142V6.45454ZM62.5057 25.2045H63.5057V24.2045H62.5057V25.2045ZM62.5057 32.8409V33.8409H63.5057V32.8409H62.5057ZM55.3011 32.8409H54.3011V33.8409H55.3011V32.8409ZM55.3011 25.2045V24.2045H54.3011V25.2045H55.3011ZM61.5057 28.8636V32.8409H63.5057V28.8636H61.5057ZM62.5057 31.8409C59.8464 31.8409 57.6971 32.3785 56.3793 33.735L57.8139 35.1286C58.5567 34.3639 60.0135 33.8409 62.5057 33.8409V31.8409ZM56.3792 33.7352C55.0972 35.0554 54.5739 37.0855 54.5739 39.5682H56.5739C56.5739 37.2932 57.0656 35.8992 57.814 35.1285L56.3792 33.7352ZM54.5739 39.5682V45.3409H56.5739V39.5682H54.5739ZM54.5739 45.3409C54.5739 47.8274 54.256 49.7884 53.6675 51.2665L55.5257 52.0063C56.2402 50.2116 56.5739 47.9756 56.5739 45.3409H54.5739ZM53.6646 51.2739C53.0874 52.7582 52.2557 53.8662 51.1879 54.6475L52.3689 56.2616C53.786 55.2247 54.8331 53.7873 55.5286 51.9988L53.6646 51.2739ZM51.1879 54.6475C50.0839 55.4553 48.7114 56.0339 47.0416 56.3594L47.4243 58.3224C49.3303 57.9509 50.9881 57.2719 52.3689 56.2616L51.1879 54.6475ZM47.0336 56.361C45.325 56.7085 43.3634 56.8864 41.142 56.8864V58.8864C43.4661 58.8864 45.5651 58.7006 47.4323 58.3208L47.0336 56.361ZM42.142 57.8864V51.5909H40.142V57.8864H42.142ZM41.142 52.5909C42.9976 52.5909 44.5571 52.3357 45.7197 51.7267L44.7917 49.9551C44.0452 50.3461 42.8622 50.5909 41.142 50.5909V52.5909ZM45.7197 51.7267C46.8996 51.1087 47.7242 50.1508 48.156 48.8929L46.2644 48.2435C45.9993 49.0158 45.5208 49.5732 44.7917 49.9551L45.7197 51.7267ZM48.1517 48.9054C48.5675 47.7445 48.7557 46.3244 48.7557 44.6818H46.7557C46.7557 46.1908 46.5802 47.3616 46.2688 48.231L48.1517 48.9054ZM48.7557 44.6818V37.2273H46.7557V44.6818H48.7557ZM48.7557 37.2273C48.7557 36.1923 48.9322 35.2323 49.2789 34.339L47.4143 33.6155C46.9731 34.7525 46.7557 35.9592 46.7557 37.2273H48.7557ZM49.2789 34.339C49.5911 33.5344 50.1735 32.7938 51.0925 32.1279L49.9189 30.5084C48.747 31.3577 47.89 32.3898 47.4143 33.6155L49.2789 34.339ZM51.1001 32.1224C51.9898 31.4648 53.3244 30.9074 55.1755 30.4993L54.7449 28.5462C52.7476 28.9865 51.1125 29.6261 49.9113 30.514L51.1001 32.1224ZM55.1812 30.498C57.0198 30.0815 59.453 29.8636 62.5057 29.8636V27.8636C59.3765 27.8636 56.7795 28.0852 54.7393 28.5474L55.1812 30.498ZM41.142 1.13636C43.3634 1.13636 45.325 1.31424 47.0336 1.66175L47.4323 -0.298121C45.5651 -0.677878 43.4661 -0.863636 41.142 -0.863636V1.13636ZM47.0416 1.66334C48.7114 1.98881 50.0839 2.56739 51.1879 3.37521L52.3689 1.76115C50.9881 0.75079 49.3303 0.0717944 47.4243 -0.299713L47.0416 1.66334ZM51.1879 3.37521C52.2557 4.1565 53.0874 5.26455 53.6646 6.74881L55.5286 6.02392C54.8331 4.23545 53.786 2.79804 52.3689 1.76115L51.1879 3.37521ZM53.6675 6.75627C54.256 8.23437 54.5739 10.1953 54.5739 12.6818H56.5739C56.5739 10.0471 56.2402 7.81109 55.5257 6.01646L53.6675 6.75627ZM54.5739 12.6818V18.4773H56.5739V12.6818H54.5739ZM54.5739 18.4773C54.5739 20.9617 55.098 22.9945 56.3742 24.3278L57.819 22.9449C57.0649 22.157 56.5739 20.7504 56.5739 18.4773H54.5739ZM56.3843 24.3383C57.7024 25.6757 59.8493 26.2045 62.5057 26.2045V24.2045C60.0105 24.2045 58.5514 23.6879 57.8088 22.9344L56.3843 24.3383ZM61.5057 25.2045V29.1818H63.5057V25.2045H61.5057ZM62.5057 28.1818C59.4516 28.1818 57.0156 27.9714 55.1739 27.5686L54.7465 29.5224C56.7836 29.968 59.3779 30.1818 62.5057 30.1818V28.1818ZM55.1828 27.5705C53.3274 27.1469 51.9868 26.5883 51.0925 25.9403L49.9189 27.5597C51.1155 28.4268 52.7446 29.0653 54.7376 29.5204L55.1828 27.5705ZM51.1001 25.9458C50.177 25.2636 49.592 24.5134 49.2789 23.7064L47.4143 24.43C47.889 25.6533 48.7435 26.691 49.9113 27.5542L51.1001 25.9458ZM49.2789 23.7064C48.9328 22.8146 48.7557 21.8473 48.7557 20.7955H46.7557C46.7557 22.077 46.9725 23.2914 47.4143 24.43L49.2789 23.7064ZM48.7557 20.7955V13.3409H46.7557V20.7955H48.7557ZM48.7557 13.3409C48.7557 11.6984 48.5675 10.2782 48.1517 9.11732L46.2688 9.79177C46.5802 10.6611 46.7557 11.8319 46.7557 13.3409H48.7557ZM48.156 9.12986C47.7234 7.86955 46.8955 6.91586 45.7085 6.31297L44.8028 8.09612C45.525 8.46293 46.0001 9.00924 46.2644 9.77923L48.156 9.12986ZM45.7197 6.31871C44.5571 5.70973 42.9976 5.45454 41.142 5.45454V7.45454C42.8622 7.45454 44.0452 7.69935 44.7917 8.09038L45.7197 6.31871ZM42.142 6.45454V0.136364H40.142V6.45454H42.142ZM61.5057 25.2045V32.8409H63.5057V25.2045H61.5057ZM62.5057 31.8409H55.3011V33.8409H62.5057V31.8409ZM56.3011 32.8409V25.2045H54.3011V32.8409H56.3011ZM55.3011 26.2045H62.5057V24.2045H55.3011V26.2045Z" fill="black" mask="url(#path-1-outside-1_9_2)"/>
</svg>
